<?xml version="1.0" encoding="UTF-8" standalone="no"?>
<!-- Created with Inkscape (http://www.inkscape.org/) -->

<svg
   xmlns:dc="http://purl.org/dc/elements/1.1/"
   xmlns:cc="http://creativecommons.org/ns#"
   xmlns:rdf="http://www.w3.org/1999/02/22-rdf-syntax-ns#"
   xmlns:svg="http://www.w3.org/2000/svg"
   xmlns="http://www.w3.org/2000/svg"
   xmlns:sodipodi="http://sodipodi.sourceforge.net/DTD/sodipodi-0.dtd"
   xmlns:inkscape="http://www.inkscape.org/namespaces/inkscape"
   width="210mm"
   height="297mm"
   viewBox="0 0 744.09448819 1052.3622047"
   id="svg10210"
   version="1.1"
   inkscape:version="0.91 r13725"
   sodipodi:docname="cog.svg">
  <defs
     id="defs10212" />
  <sodipodi:namedview
     id="base"
     pagecolor="#ffffff"
     bordercolor="#666666"
     borderopacity="1.0"
     inkscape:pageopacity="0.0"
     inkscape:pageshadow="2"
     inkscape:zoom="0.35"
     inkscape:cx="-107.85714"
     inkscape:cy="520"
     inkscape:document-units="px"
     inkscape:current-layer="layer1"
     showgrid="false"
     inkscape:window-width="1535"
     inkscape:window-height="876"
     inkscape:window-x="65"
     inkscape:window-y="24"
     inkscape:window-maximized="1" />
  <metadata
     id="metadata10215">
    <rdf:RDF>
      <cc:Work
         rdf:about="">
        <dc:format>image/svg+xml</dc:format>
        <dc:type
           rdf:resource="http://purl.org/dc/dcmitype/StillImage" />
        <dc:title></dc:title>
      </cc:Work>
    </rdf:RDF>
  </metadata>
  <g
     inkscape:label="Layer 1"
     inkscape:groupmode="layer"
     id="layer1">
    <g
       id="g10772"
       transform="translate(1517.1429,457.14286)">
      <path
         inkscape:connector-curvature="0"
         id="path4749-5-8"
         d="m -1145.7143,-228.62896 c -5.7173,0 -20.0287,0.55426 -20.2642,0.78535 -0.039,0.0383 -0.8993,9.23186 -1.8859,19.88151 a 278.46097,278.46097 0 0 0 -63.442,12.8444 c -4.0423,-7.72879 -9.2689,-17.71288 -9.2985,-17.79703 -0.175,-0.49679 -13.6472,4.52291 -23.0321,8.58057 -8.1157,3.50898 -14.8042,6.76403 -14.6629,7.13739 0.042,0.11167 3.3691,10.73996 5.882,18.76085 a 278.46097,278.46097 0 0 0 -53.6862,36.22454 c -8.3814,-6.97301 -15.1762,-12.59633 -15.3389,-12.65856 -0.4731,-0.18155 -1.7481,0.91756 -9.2584,7.97742 -8.5535,8.04049 -19.7095,19.93002 -19.4169,20.69242 0.064,0.16765 5.6164,6.87347 12.5073,15.15484 a 278.46097,278.46097 0 0 0 -35.8109,53.955889 c -8.2071,-2.5711 -18.9082,-5.92149 -19.0215,-5.96394 -0.352,-0.13257 -3.5093,6.29411 -6.7638,13.7682 -4.0869,9.38551 -9.4641,23.74828 -8.9577,23.92675 0.085,0.0299 10.0277,5.23279 17.6512,9.21833 a 278.46097,278.46097 0 0 0 -12.5528,63.50215 c -10.713,0.99424 -19.9811,1.86393 -20.0219,1.90591 -0.2417,0.24919 -0.789,14.31043 -0.789,20.26606 0,5.87746 0.5469,20.01436 0.7835,20.25879 0.037,0.0376 9.2491,0.90085 19.918,1.88949 a 278.46097,278.46097 0 0 0 12.8426,63.423881 c -7.7511,4.05402 -17.7438,9.28457 -17.828,9.3148 -0.4961,0.17847 4.5186,13.64514 8.5787,23.03569 3.8497,8.90374 6.7573,14.80694 7.2085,14.63379 0.3611,-0.13854 8.8753,-2.80788 18.719,-5.8838 a 278.46097,278.46097 0 0 0 36.2208,53.6844 c -6.983,8.39146 -12.616,15.19748 -12.6822,15.36988 -0.5032,1.31126 27.3428,29.18567 28.6534,28.68262 0.163,-0.0625 6.8924,-5.62957 15.2004,-12.54007 a 278.46097,278.46097 0 0 0 53.9322,35.79986 c -2.2837,7.30598 -5.1996,16.66901 -5.8746,18.76636 -0.1801,0.55977 0.2334,0.82929 4.0525,2.6476 9.3638,4.45826 19.3033,8.58999 28.6953,11.92788 2.6196,0.93108 4.8027,1.58255 4.8506,1.44681 0.031,-0.0877 5.2389,-10.04156 9.2383,-17.69133 a 278.46097,278.46097 0 0 0 63.4894,12.5565 c 0.9963,10.73595 1.8681,20.02219 1.9096,20.06371 0.081,0.0802 2.8929,0.26766 6.25,0.41544 8.9252,0.39333 18.0772,0.4035 26.609,0.0308 4.1371,-0.18061 7.5859,-0.38726 7.6621,-0.46096 0.039,-0.0373 0.9025,-9.25975 1.8914,-19.93618 a 278.46097,278.46097 0 0 0 63.4129,-12.83348 c 4.137,7.915 9.3873,17.96253 9.4096,17.99378 0.1,0.14209 9.1383,-3.12294 14.4461,-5.21861 5.7689,-2.27778 13.0465,-5.45324 19.0142,-8.29452 3.8219,-1.81971 4.2327,-2.08747 4.0506,-2.64761 -0.615,-1.89294 -3.0489,-9.66651 -5.8108,-18.51129 a 278.46097,278.46097 0 0 0 53.67705,-36.20802 c 8.39418,6.98607 15.20188,12.62003 15.37354,12.68589 1.31424,0.50426 29.17776,-27.36101 28.67345,-28.67534 -0.0657,-0.1712 -5.6267,-6.89073 -12.52732,-15.18404 a 278.46097,278.46097 0 0 0 35.81812,-53.94488 c 9.96044,3.11211 18.60249,5.81859 18.96683,5.95843 0.62183,0.23856 6.81969,-13.15703 10.82907,-23.40374 2.12979,-5.44289 5.24275,-14.07952 5.10751,-14.17282 -0.0313,-0.0215 -10.03021,-5.24818 -17.81523,-9.31843 a 278.46097,278.46097 0 0 0 12.56741,-63.505791 c 10.72453,-0.99434 19.99846,-1.86365 20.03462,-1.9006 0.22469,-0.22922 0.77806,-14.63826 0.77806,-20.25505 0,-5.73192 -0.55518,-20.02966 -0.78717,-20.26607 -0.0411,-0.0419 -9.24917,-0.90757 -19.90706,-1.89686 a 278.46097,278.46097 0 0 0 -12.83345,-63.42378 c 7.74504,-4.04916 17.73639,-9.27617 17.82434,-9.30752 0.13583,-0.0479 -0.5162,-2.23104 -1.4468,-4.85065 -3.41952,-9.62537 -7.49771,-19.46187 -11.77477,-28.39649 -1.95836,-4.09077 -2.24269,-4.53131 -2.80248,-4.35125 -2.12379,0.68254 -11.34813,3.55582 -18.48031,5.78537 a 278.46097,278.46097 0 0 0 -36.21536,-53.684399 c 6.97649,-8.38297 12.60329,-15.17881 12.66764,-15.34618 0.50472,-1.31545 -27.36145,-29.17111 -28.6771,-28.6662 -0.1694,0.065 -6.87599,5.61455 -15.15488,12.50182 a 278.46097,278.46097 0 0 0 -53.95401,-35.82356 c 2.5462,-8.13247 5.8792,-18.78875 5.9329,-18.92859 0.3728,-0.97157 -21.5295,-10.49544 -34.1126,-14.83419 -1.8804,-0.64839 -3.443,-1.14351 -3.4712,-1.10059 -0.019,0.0282 -5.2367,10.01627 -9.2912,17.77333 a 278.46097,278.46097 0 0 0 -63.5203,-12.56564 c -0.9918,-10.706 -1.8586,-19.96052 -1.8969,-19.99812 -0.2341,-0.22969 -14.5663,-0.78349 -20.2624,-0.78349 z"
         style="color:#000000;clip-rule:nonzero;display:inline;overflow:visible;visibility:visible;opacity:1;isolation:auto;mix-blend-mode:normal;color-interpolation:sRGB;color-interpolation-filters:linearRGB;solid-color:#000000;solid-opacity:1;fill:none;fill-opacity:1;fill-rule:nonzero;stroke:none;stroke-width:0.40000001;stroke-linecap:butt;stroke-linejoin:miter;stroke-miterlimit:4;stroke-dasharray:none;stroke-dashoffset:0;stroke-opacity:1;color-rendering:auto;image-rendering:auto;shape-rendering:auto;text-rendering:auto;enable-background:accumulate" />
      <path
         inkscape:transform-center-y="-182.33254"
         inkscape:transform-center-x="1.5152289"
         sodipodi:nodetypes="csccscc"
         inkscape:connector-curvature="0"
         id="rect4848-5"
         d="m -1027.8571,-120.22307 0,28.509529 c 0,21.58753 -17.3792,38.96667 -38.9667,38.96667 -61.7135,-37.83569 -101.4702,-37.08281 -160.6381,0 -21.5875,0 -38.9667,-17.37914 -38.9667,-38.96667 l 0,-28.509529 c 19.403,-73.43436 220.674,-66.38731 238.5715,0 z"
         style="color:#000000;clip-rule:nonzero;display:inline;overflow:visible;visibility:visible;opacity:1;isolation:auto;mix-blend-mode:normal;color-interpolation:sRGB;color-interpolation-filters:linearRGB;solid-color:#000000;solid-opacity:1;fill:none;fill-opacity:1;fill-rule:nonzero;stroke:none;stroke-width:0.40000001;stroke-linecap:butt;stroke-linejoin:miter;stroke-miterlimit:4;stroke-dasharray:none;stroke-dashoffset:0;stroke-opacity:1;color-rendering:auto;image-rendering:auto;shape-rendering:auto;text-rendering:auto;enable-background:accumulate" />
      <path
         inkscape:transform-center-y="84.491538"
         inkscape:transform-center-x="-150.4088"
         sodipodi:nodetypes="csccscc"
         inkscape:connector-curvature="0"
         id="rect4848-1-3"
         d="m -1040.1088,266.52533 -24.69,-14.25476 c -18.6953,-10.79376 -25.0565,-34.5341 -14.2628,-53.22945 63.6234,-34.52763 82.84977,-69.33438 80.31907,-139.116681 10.79377,-18.69535 34.53411,-25.05656 53.22946,-14.2628 l 24.68997,14.25477 c 53.89452,53.520671 -52.84386,224.302871 -119.2857,206.608921 z"
         style="color:#000000;clip-rule:nonzero;display:inline;overflow:visible;visibility:visible;opacity:1;isolation:auto;mix-blend-mode:normal;color-interpolation:sRGB;color-interpolation-filters:linearRGB;solid-color:#000000;solid-opacity:1;fill:none;fill-opacity:1;fill-rule:nonzero;stroke:none;stroke-width:0.40000001;stroke-linecap:butt;stroke-linejoin:miter;stroke-miterlimit:4;stroke-dasharray:none;stroke-dashoffset:0;stroke-opacity:1;color-rendering:auto;image-rendering:auto;shape-rendering:auto;text-rendering:auto;enable-background:accumulate" />
      <path
         inkscape:transform-center-y="87.250611"
         inkscape:transform-center-x="148.19385"
         sodipodi:nodetypes="csccscc"
         inkscape:connector-curvature="0"
         id="rect4848-1-7-8"
         d="m -1368.9169,62.540859 24.69,-14.25476 c 18.6953,-10.79377 42.4356,-4.43257 53.2294,14.26278 -1.9099,72.363311 18.6205,106.417181 80.3191,139.116681 10.7937,18.69535 4.4325,42.43569 -14.2628,53.22946 l -24.69,14.25476 c -73.2975,19.91369 -167.83,-157.91556 -119.2857,-206.608921 z"
         style="color:#000000;clip-rule:nonzero;display:inline;overflow:visible;visibility:visible;opacity:1;isolation:auto;mix-blend-mode:normal;color-interpolation:sRGB;color-interpolation-filters:linearRGB;solid-color:#000000;solid-opacity:1;fill:none;fill-opacity:1;fill-rule:nonzero;stroke:none;stroke-width:0.40000001;stroke-linecap:butt;stroke-linejoin:miter;stroke-miterlimit:4;stroke-dasharray:none;stroke-dashoffset:0;stroke-opacity:1;color-rendering:auto;image-rendering:auto;shape-rendering:auto;text-rendering:auto;enable-background:accumulate" />
      <circle
         r="10.473125"
         cy="69.50502"
         cx="-1145.7144"
         id="path4959-9-1-5"
         style="color:#000000;clip-rule:nonzero;display:inline;overflow:visible;visibility:visible;opacity:1;isolation:auto;mix-blend-mode:normal;color-interpolation:sRGB;color-interpolation-filters:linearRGB;solid-color:#000000;solid-opacity:1;fill:none;fill-opacity:1;fill-rule:nonzero;stroke:none;stroke-width:0.40000001;stroke-linecap:butt;stroke-linejoin:miter;stroke-miterlimit:4;stroke-dasharray:none;stroke-dashoffset:0;stroke-opacity:1;color-rendering:auto;image-rendering:auto;shape-rendering:auto;text-rendering:auto;enable-background:accumulate" />
    </g>
  </g>
</svg>
